/* XPM */
static char *result[] = {
/* columns rows colors chars-per-pixel */
"50 100 212 2 ",
"   c #6E2C0F",
".  c #762600",
"X  c #792601",
"o  c #7B2807",
"O  c #7C2A05",
"+  c #76260D",
"@  c #752E0E",
"#  c #7B2D0C",
"$  c #743301",
"%  c #793704",
"&  c #773803",
"*  c #73300D",
"=  c #79310C",
"-  c #6F2D13",
";  c #6F2D1B",
":  c #752E12",
">  c #7A2C14",
",  c #732E1A",
"<  c #7A2D1A",
"1  c #6F3213",
"2  c #6F301B",
"3  c #743113",
"4  c #7A3115",
"5  c #76321A",
"6  c #7A311A",
"7  c #762C23",
"8  c #7B3220",
"9  c #802703",
"0  c #8B2500",
"q  c #842A06",
"w  c #8C2C04",
"e  c #832D0D",
"r  c #892E0A",
"t  c #912E0A",
"y  c #803606",
"u  c #8E3403",
"i  c #83300E",
"p  c #89350E",
"a  c #91320C",
"s  c #812F11",
"d  c #813112",
"f  c #8C3313",
"g  c #893419",
"h  c #943A15",
"j  c #993C16",
"k  c #953D1C",
"l  c #A63F0E",
"z  c #A53E11",
"x  c #894700",
"c  c #874800",
"v  c #8B4B0B",
"b  c #8E5302",
"n  c #915303",
"m  c #9D4A10",
"M  c #9D411F",
"N  c #AB5309",
"B  c #AC4415",
"V  c #A5431C",
"C  c #AC451A",
"Z  c #AD4C1A",
"A  c #B24515",
"S  c #B94715",
"D  c #BE4C17",
"F  c #B54619",
"G  c #B54A1A",
"H  c #BB4A1C",
"J  c #B9521A",
"K  c #B55D1D",
"L  c #B95D1C",
"P  c #AD6A0F",
"I  c #AC7607",
"U  c #AC750A",
"Y  c #AE7C0D",
"T  c #B17A07",
"R  c #B2750A",
"E  c #B57609",
"W  c #B37B0C",
"Q  c #B97E0F",
"!  c #AB6E1E",
"~  c #B76917",
"^  c #AA7015",
"/  c #B47B12",
"(  c #A34121",
")  c #AD4522",
"_  c #AC4A24",
"`  c #B24926",
"'  c #BD4A25",
"]  c #B75024",
"[  c #C24A14",
"{  c #C14B1B",
"}  c #DF5511",
"|  c #E75A16",
" . c #E55B1D",
".. c #E9591B",
"X. c #FF5F1B",
"o. c #C06119",
"O. c #C16A18",
"+. c #EA6F00",
"@. c #EA6A0E",
"#. c #E57604",
"$. c #E97302",
"%. c #F57D0D",
"&. c #F87B0D",
"*. c #EC6716",
"=. c #F36417",
"-. c #FD6014",
";. c #F06D13",
":. c #F4641A",
">. c #FD621D",
",. c #F56C1C",
"<. c #FA6C1D",
"1. c #FB7716",
"2. c #FF7F16",
"3. c #F7701E",
"4. c #FA711E",
"5. c #FF7F19",
"6. c #C04A27",
"7. c #CF5B24",
"8. c #D65B2B",
"9. c #D75D29",
"0. c #E25C24",
"q. c #FE5E23",
"w. c #D36A2E",
"e. c #DB7623",
"r. c #DB6832",
"t. c #E66326",
"y. c #EA6227",
"u. c #EA652B",
"i. c #EE682F",
"p. c #FE6422",
"a. c #FD6C24",
"s. c #F4672B",
"d. c #FE642A",
"f. c #F46C2A",
"g. c #FD6D29",
"h. c #EE7525",
"j. c #F47223",
"k. c #FB7122",
"l. c #FB7527",
"z. c #F6712E",
"x. c #E46934",
"c. c #EC6A35",
"v. c #EA6B39",
"b. c #F36E31",
"n. c #EB733C",
"m. c #F37133",
"M. c #8E5E4E",
"N. c #8D604E",
"B. c #8D6051",
"V. c #E87643",
"C. c #AB800C",
"Z. c #BE8E0B",
"A. c #BE8C11",
"S. c #BA8324",
"D. c #F5820B",
"F. c #FB861A",
"G. c #F6961C",
"H. c #FE961E",
"J. c #F59C1D",
"K. c #FD991C",
"L. c #FFB20D",
"P. c #FABB0D",
"I. c #F4A216",
"U. c #FAA314",
"Y. c #FDAF10",
"T. c #F3A01C",
"R. c #FBBA11",
"E. c #FFBB1B",
"W. c #FF8524",
"Q. c #FF8924",
"!. c #FF872B",
"~. c #FE8C2C",
"^. c #FE9523",
"/. c #FB9922",
"(. c #F99827",
"). c #F7952B",
"_. c #FE932C",
"`. c #FF8E33",
"'. c #FF8E39",
"]. c #FE9332",
"[. c #FF9039",
"{. c #F2A021",
"}. c #ECBC27",
"|. c #EEBD2B",
" X c #FFBD24",
".X c #F1BE2C",
"XX c #F8A739",
"oX c #EFBB3C",
"OX c #F1BD32",
"+X c #FFCF0E",
"@X c #FDD504",
"#X c #F7DC01",
"$X c #FDDA02",
"%X c #FFD40C",
"&X c #FFDA0A",
"*X c #FFC616",
"=X c #F6CA15",
"-X c #FFCD15",
";X c #FFC61C",
":X c #F7CA1D",
">X c #FFCB1B",
",X c #FFD512",
"<X c #FFD914",
"1X c #FFD51A",
"2X c #FDD91C",
"3X c #FEE002",
"4X c #F7C624",
"5X c #FEC623",
"6X c #F7C922",
"7X c #FCC921",
"8X c #F9C52B",
"9X c #FFC231",
/* pixels */
"M.B.M.M.M.M.M.B.N.N.B.M.N.N.M.N.M.M.M.B.N.N.N.N.N.N.N.N.M.M.N.M.B.N.M.M.M.N.B.N.M.N.N.B.B.N.B.B.N.B.",
"4 8 g 6 6 6 6 g 6 6 6 6 6 6 6 6 6 6 d 6 6 6 6 6 6 6 g 6 6 6 6 8 g 6 6 6 6 8 8 d 6 6 6 g 8 6 g 6 6 6 ",
"4 8 6 6 5 < 5 5 6 5 6 < 6 6 6 6 5 5 6 6 6 6 6 6 6 6 5 6 6 6 6 6 6 5 5 6 6 6 8 6 6 4 6 5 < 6 6 6 6 d ",
"4 6 5 8 8 8 < 6 5 8 8 8 8 8 < 8 7 8 8 5 6 6 5 5 g 6 6 6 6 6 5 6 6 5 4 6 6 6 6 6 6 5 4 4 8 5 5 4 6 4 ",
"4 4 * 5 5 4 5 6 6 6 4 6 5 5 5 6 6 4 6 4 < , < g 5 6 5 4 4 4 6 4 4 4 4 5 4 5 4 4 4 4 4 4 4 > 4 = 6 6 ",
"6 8 v U I I U U I U U U U U I I U U I U P N G z 3 4 ^ U U U U U U I I U I Y U U I U Y I E B A h 5 d ",
"5 6 / &X&X,X&X<X<X&X,X&X&X&X,X<X&X,X,X<X8X#.s.0.> 4 6X@X<X,X<X&X<X,X,X&X<X,X&X2X,X,X&X,X1Xp.s.' 5 d ",
"5 5 / $X$X$X$X$X3X$X$X$X$X$X$X$X$X$X$X$X1X#.p...> 3 =X$X$X$X$X$X$X$X$X$X$X#X$X$X$X$X$X$X%X:.>.6.< > ",
"5 5 / $X$X$X$X$X#X$X$X$X$X$X#X$X@X$X#X$X>X$.p...> @ :X$X$X$X$X$X$X$X$X3X$X#X$X#X$X$X$X$X&X>.>.{ 5 < ",
"5 6 W $X$X$X$X@X$X$X$X$X@X$X$X@X@X$X$X$X>X$.q...< = :X$X$X@X$X$X$X$X#X&X$X$X$X$X$X$X$X$X$X-.>.H 5 4 ",
"5 5 W $X$X>X1X1X-X-X1X-X-X1X-X-X-X1X1X1X9X$.>...> = 6X$X@X>X-X-X+X-X,X-X-X*X-X-X-X-X-X-X7X-.>.{ 5 s ",
"6 6 W $X$X/./.J.G./.G.G.G./.G././.G.G.{._.;.>...5 = 6X$X$XG.G.G.G.G.G.G.G.G.G.G.G.G.G.G.).>.>.{ 5 > ",
"4 6 / $X&X].).].].].].).).).].).].].).].`.,.>...: = 6X$X$X_._._.~.].].]._.`.]._.].].].`.`.:.>.{ 5 > ",
"5 4 / $X3X).].].)._.XX].].].).].].).].].`.,.X...4 = :X$X$X_._.].`.].].].].].`.].].].].].~.>.>.{ 5 s ",
"6 = Y #X3X{.].).].].].].].].].].].].].].`.,.>...> > :X$X$X).(._._.).)._._.)._.)._._.)._._.>.p.{ 5 4 ",
"5 8 / &X&X).].[.[.[.[.[.].[.].[.[.].[.[.'.,.>...> > 6X%X%X)._._._._._._._._._._._._._._.].>.q.{ 5 < ",
"4 6 J &.%.s.<.<.<.<.<.<.<.<.<.<.<.<.<.<.<.<.>.| > o e.&.1.a.s.<.<.a.<.<.,.k.a.<.<.a.a.<.<.>.p.{ 5 > ",
"4 6 ` >.>.p.>.>.>.-.>.>.>.-.<.-.>.-.>.>.>.>.X...< o 8.q.>.q.X.p.>.X.p.p.p.X.>.p.>.>.>.p.>.>.p.{ 5 s ",
"5 6 G >.>.>.>.>.>.>.>.>.>.>.>.>.>.>.>.>.>.>.>...> e 9.>.>.>.>.>.>.p.X.p.X.p.p.>.>.>.>.>.p.>.>.{ 5 < ",
"6 5 ` -.>.>.>.-.X.>.X.>.-.>.>.>.>.>.>.>.>.>.>...> q 9.>.>.>.X.>.>.>.>.>.p.X.X.p.p.>.p.>.>.>.>.{ 5 d ",
"5 < G >.>.p.p.p.p.p.p.p.p.p.X.X.>.>.>.>.X.p.p.} # # 7.>.:.q.p.>.X.X.X.q.X.X.X.X.X.X.X.X.X.X.X.' 5 d ",
"5 > k ` ` ` _ _ ` _ _ _ ` ` _ ` ) ` _ ` ` ` _ _ < : M ` ` ` _ ` ` ` _ _ ` ` _ ` ` ` _ _ ` ) _ k 5 > ",
"< > + + + + > + + + + +   + > > > > > > < + , : > > + + + + + + + > > > + > > > > > > > > > + @ > > ",
": 4 > : < < < < < : < < > < , > > > : < < > > : > , : > > > > > > > > > > > > + > > > > > < > > > > ",
": < # < , > > > > + > > > > > < > < @ : > , > : > @ @ @ @ @ @ : @ @ : @ @ : : @ @ @ : : > 7 < > < # ",
"> > > , > < < 7 , < < < < < , < < < , > > < > > : , > > , < > > > > > , > > > > , > > > > ; : < > # ",
": : y x c c c c c c x c c c c c c c u t f e > @ c c c c x x c c x x x x x x c x x x c c c w a d > > ",
"@ # Q %X&X&X&X&X&X$X&X%X&X&X&X$X&X%XF.s.v.0 # & <X&X%X%X&X&X%X@X%X&X&X&X%X&X&X%X&X&X&X%X<Xd.a.G > + ",
"@ @ C.$X$X$X$X$X$X$X$X$X@X$X$X@X$X$X2.p.i.0 @ & $X$X@X$X$X#X$X$X$X$X$X@X$X@X$X$X@X#X$X$X%Xp.a.D + @ ",
"@ @ Q $X$X$X@X@X$X$X@X@X&X@X$X@X$X$X5.p.i.0 @ & $X$X$X$X$X@X$X@X$X@X#X$X$X$X@X$X$X$X@X$X%Xp.p.{ @ @ ",
"@   T $X$X$X#X#X#X$X$X#X#X$X#X#X@X$X2.X.s.0 @ & &X$X$X$X#X$X#X$X#X#X$X$X#X$X#X#X#X$X#X$X@Xp.p.D @ = ",
"@ @ T $X$X+X@X@X@X@X%X@X%X@X%X@X@X@X2.p.x.0 + & @X$X%X$X@X%X@X%X+X%X@X%X%X@X%X%X%X%X%X%X,Xp.p.D 3 O ",
"@ @ E $X$XJ.K.K.K.K.K.K.K.K.K.K.K.K.k.p.x.0 @ & @X%XL.K.K.K.K.K.H.H.K.K.K.K.K.K.H.K.K.K.K.>.p.{ @ O ",
"@ @ T $X$XJ./.^.H.H.H.H.^./.H.^./.K.<.p.c.0 # % &X%XL.K.K.H.K.^.^.^.H.K.H.H.H.H.^.K.K.H._.p.p.{ : # ",
"@ @ T $X$X/.K.H.H.K.H.H.H.H.H.H.K.K.a.a.c.0 @ % &X%XY.H.K.K.K.^.H.^.K.H.H.K.H.H.^.K./.K.K.>.p.{ @ = ",
"@ : W $X$XH.H.H.H.H.K.H.^.H.H.H.H.H.g.d.c.0 @ & $X%XL.H.K.H.H./.H.K.K.H.H.K.H.H.H.H.H.H.H.<.a.D   = ",
"  : U $X$XH.K.H.H.H.H.H.H.H.H.K.H.H.k.d.b.0 > & &X%XY.H.H.H.H.^.^.H.^.H.H.^.H.K.H.H.H.H.H.>.d.D 3 @ ",
"* : R $X#XH.^.H.H.H.H.H.H.H.H.H.H.H.k.>.s.0 @ % &X%XY.H.H.H.H.H.^.H.K.H.H.H.H.H.H.H.^.H.H.<.p.D * # ",
": : T $X#XH.H.H.H.H.H.H.H.H.H.^.H.K.k.d.c.0 @ % $X%XY.H.^././.H.H.K.H.H.K.^.H.H.H.H.H.H.H.>.p.D * = ",
": @ R $X$XH.K.H.H.H.H.^.H.H.^.H.H.H.<.a.c.0 @ % &X%XY.H.K.^.H.K.H.H.H.H.H.H.H.H.H.H.H.H.^.=.a.D : O ",
": @ I $X#XH.H.K.H.H.H.^.H.H./.^.H.K.<.d.c.0 = & $X%XY.H.^.^.H.H.^.H.H.H.H.H.H.H.H.H.H.H.H.:.p.{ * # ",
"3 @ T 3X3XK.K.K.K.^.^.K.H.H././.K./.4.p.c.0 = & &X&XY.H.K.H.H.H.K.H.^.K.K.H.^.K.K.^.^.K.^.<.d.[ 3 @ ",
"* * ~ L.L.Q.Q.Q.Q.Q.W.Q.W.F.Q.Q.Q.Q.<.p.v.0 * & Y.Y.K.Q.W.W.Q.Q.Q.Q.Q.Q.Q.Q.Q.Q.Q.Q.Q.Q.W.>.p.{ @ @ ",
"* @ G >.<.d.>.>.>.>.>.>.>.>.a.>.>.>.>.a.v.0   f a.g.p.a.a.p.a.p.a.p.a.d.d.a.p.d.a.d.d.a.a.d.p.{ @ = ",
"  < F p.<.d.>.p.p.p.>.>.<.>.>.p.p.>.p.d.c.0 = p s.a.p.p.p.a.p.p.d.p.p.p.p.d.a.p.p.p.p.p.a.p.a.[ @ = ",
"* @ Z X.q.p.p.p.p.p.p.p.p.d.p.p.p.d.p.a.c.0 @ p a.p.a.>.<.p.<.<.a.>.<.>.>.<.p.>.<.>.a.p.>.a.p.[ - @ ",
"@ @ G >.>.>.p.>.>.p.>.>.>.>.>.>.>.>.>.>.i.w * p <.p.p.p.p.p.>.a.p.p.>.<.a.p.p.p.p.p.<.>.>.<.>.[ = O ",
"@ * ` 0.y.u.y.u.u.t.y.y.u.u.u.y.y.u.y.t.r.0 3 g y.u.u.u.u.u.u.u.u.u.u.u.u.u.i.u.u.u.i.u.u.u.u.J = O ",
"= @ @ 9 O O # O O O O O O o O O o O q . X = * 5 X . . . . . . . . . . . . . . . . . . . . . X # : # ",
"* : : : - - : 1 2 3 3 1 : : , 3 - 3 2 3 3 3 * 1 3 3 1 1 1 1 - : 3 1 1 3 1 1 1 1 1 1 1 1 3 * 1 - 3 @ ",
"  3 : @ : : @ : = : * 3 @ 3 3 @ 3 * * @ @ @ * 1 @ * @ * @ : : > : : @ @ : @ @ : - * : : = : @ - @ = ",
"* : @ @ * @ * : @ @ : : @ @ * @ *   @ @ @ = @   = @ @ * * @ @ # : @ 3 > @ : : : * : * : * : : : @ @ ",
"3 3 $ $ $ $ $ $ o X o :   $ $ $ $ $ $ & $ $ $ $ & $ $ $ $ $ $ O X X 3 = : $ $ $ $ $ $ $ $ $ $ $ * @ ",
": 5 ! 4X}.}.|.OXx.r.m , 5 oX|.4X|.|.|.|.|.|.}.4X|.|.|.|.|.|..XXXw.r.6 : - 8X|..X|.8XOX|.|.|.|.S.  = ",
"5 : R &X&X&X$X&Xd.g.B - , 1X@X$X$X$X$X$X$X$X$X$X$X$X$X$X$X$X$XR.j.s.f , : $X$X$X$X$X#X@X$X$X$XZ.* # ",
"3 5 W $X$X$X3X<Xg.a.z , , 1X$X#X#X$X$X$X$X$X$X$X$X$X$X$X$X$X$XE.h.a.f , 3 &X&X$X$X$X$X$X$X&X$XA.* = ",
"4 5 W $X$X3X&X&Xg.a.l , , 1X#X$X#X$X$X3X$X$X$X$X#X$X$X$X$X$X$XE.j.k.i : : &X$X3X3X$X&X$X$X3X$XZ.* O ",
"5 5 W @X&X3X$X<Xd.a.z < , 1X#X$X$X&X&X&X&X&X&X&X&X&X&X&X&X3X$XE.j.k.i , : &X3X3X&X$X3X&X3X#X@XZ.: # ",
"< 5 P R.R.*XP.E.a.a.z , , ,X$X@XP.R.P.R.P.R.R.R.P.R.R.R.R.R.P.K.j.g.e , 3 &X$X@XR.R.R.R.R.R.P.A.3 # ",
"3 < ~ F.H.H.H._.a.a.z , , &X$X%XK.F.G.Q.G.H.H.F.G.G.H.F.H.G.H.!.a.g.e 5 - &X$X:XG.F.H.H.^.K.K.~ : @ ",
"5 5 L ^.^.^.^.^.a.a.z , , <X$X,XQ.^.^.^.^.^.^.^.^.^.^.^.^.^.^.W.k.g.e 2 - $X$X;X_.^.^.^.^.^.^.O.4 O ",
"4 5 L ^.^.^.^.^.a.a.z , , 2X$X%X^.^.^.^.^.^.^.^.^.^.^.^.^.^._.W.a.g.e -   &X$X>X^.^.^.^.^.^.^.~ = # ",
"5 5 L ^.^.^.^.^.a.a.z , , <X$X%X^.^.^.^.^.^.^.^.^.^.^.^.^.^.^.W.k.a.e 2   &X$X*X~.^.^.^.^.^.^.O.3 = ",
"4 5 L ^.^.^.^.^.a.a.z , , <X$X%X^.^.^.^.^.^.^.^.^.^.^.^.^.^._.W.4.g.i - - &X3X*X^.^.^.^.^.^.H.O.4 = ",
"5 6 L ^.^.^.^._.a.a.z , , <X#X,X^.^.^.^.^.^.^.^.^.^.^.^.^.^.^.W.4.g.i , - &X3X*X(.^.H.^.^.H.^.O.: # ",
"4 6 L ^.^.^.^.^.a.a.z < 2 <X$X%X(.^.^.^.^.^.^.^.^.^.^.^.^.^.~.W.4.g.i : - $X3X*X^.^.^.^.^.^.^.O.> # ",
"5 5 L ^.^.^.^.^.a.a.z , , <X$X%X/.^.^.^.^.^.^.^.^.^.^.^.^.^.^.W.4.g.i - - &X#X*X^.^.^.^.^.^.^.O.3 = ",
"< 6 K K.K.H.H._.a.a.z , , 2X$X%XK./.^.^.^.H.H.^.^.H.^.H.H.^.^.!.k.a.d ;   $X&X;X^.H.H.H.H.H.^.O.3 # ",
"5 4 K _._.^._.~.a.a.B 2 2 1X$X-X/._._._.^.^.^.(.^.^._.^.Q.^.^.!.a.g.i :   +X@X5X/.^.^._.^._.^.o.3 O ",
"> 4 H <.a.4.4.j.a.a.z : > j.<.k.4.a.k.l.k.k.k.k.k.k.a.a.k.a.a.g.a.g.i , < 1.1.k.a.s.k.k.k.k.3.J : # ",
"> 4 F g.g.k.g.a.g.a.z , , z.g.g.a.a.g.g.k.a.a.a.a.a.g.k.k.k.a.a.g.g.s ; < a.a.a.<.a.a.s.a.a.a.[ @ # ",
"> : G g.g.g.g.g.g.g.z , : m.z.g.a.g.g.g.g.g.g.a.g.g.g.g.g.g.g.g.g.g.s ; > z.f.a.a.j.a.g.g.g.f.J @ # ",
"> > ` z.m.m.m.m.m.m.V : : n.m.m.m.z.m.b.m.m.b.b.b.m.b.m.m.m.m.m.z.m.i ; : m.m.z.b.m.m.m.m.z.z.] @ # ",
"> 4 _ n.n.n.n.n.n.n.z < 1 V.V.n.n.n.n.n.n.v.n.n.n.n.n.n.n.n.n.n.n.n.d , , V.n.m.n.n.n.n.n.n.n.` : @ ",
"> 4 h A F C B A B C f < < V F A F F A B V S C C B A A V S B C V S B g 5 < B C S B Z B S G C S j : = ",
"= > # w w u i w u e e < 5 q r w r w w w r w w w r w w r w w w e w w > 5 < 9 e w w q q w r e w r 3 # ",
"= : 4 e s s d e e s d 5 4 s e d s e i f d e s s i e e s i e e 4 e e 4 6 5 s e e e s s e s s e s 4 = ",
"= > > < 4 4 4 4 4 5 4 4 5 6 4 4 < 5 5 4 6 6 6 6 6 6 5 4 4 4 5 4 4 4 5 4 4 4 4 5 4 4 5 4 5 6 > 6 4 4 ",
"@ > 5 : 5 3 3 3 : 3 3 3 4 3 3 3 3 3 : 3 > 5 6 6 6 6 < 3 = 3 > 3 : : : , < @ : : : = > 5 < , 4 5 4 4 ",
"= > c b b n b b b b b b b n b b b b b n n m C ( 6 < v n b b b n b b b b b b b b b n b b b V V k 6 4 ",
"@ @ I @X@X$X@X$X@X@X$X$X@X@X$X$X$X$X$X%X-X#.>.} < @ 8X@X#X@X@X@X@X@X@X@X@X@X@X@X@X@X#X@X+XX.X.F 5 > ",
"# > I $X$X$X$X$X$X$X$X$X$X$X$X$X$X$X$X@X7X+.>.| > @ 6X$X$X$X$X$X$X$X$X$X$X$X$X$X$X$X$X$X%X:.X.G 5 > ",
"@ > I $X$X$X$X$X$X$X$X$X$X$X$X$X$X$X$X$X5X$.>.| > > =X$X$X@X$X$X$X$X$X$X@X$X$X$X@X@X$X$X@X>.p.H 5 e ",
"@ @ R $X$X,X%X%X,X,X%X@X@X@X@X@X@X,X,X,X5X$.>...s > =X$X$X,X%X%X,X,X%X%X@X,X%X%X,X,X%X%X-X>.X.H 5 > ",
"@ @ W $X#X*X-X;X;X>X-X%X%X%X%X%X+X;X5X;X X+.p...> > :X$X@X*X>X-X;X7X-X>X>X6X*X;X5X;X>X*X6X>.>.D 5 4 ",
"> @ R $X#XU.I.{.I.K./.)._._._.)._.J.I.I._.@.:.| > = 4X$X&XU.I.J.T.I.{.T.J.I.J.T.T.T.J.J.I.>.p.{ 5 5 ",
"> @ I $X$X/.(._./.(._._.].]._.]._.(././.].*.>. .4 = 4X$X$XJ.K./.)./.(.).)./.(._./.(.)._.^.>.>.{ 5 6 ",
"# : R $X$X_._.]._._._._._.]._._._._._.].`.=.>. .> = 4X$X%X_._._._._.].].]._.]._._._._._.].>.>.D 6 6 ",
"> : T $X$X~._._._._._._._._._._._._._._.`.:.X. .4 = 4X$X&X)._._._._.]._.`._._.].]._._.].~.>.>.{ 8 < ",
"@ @ E %X%X!._._._._.~._.~._._.~._._.~._.`.:.>. .s # 8X,X-X_._._.].].].`.`.].`.].`._.`.].[.>.>.{ 5 < ",
"@ 3 N D.D.j.<.3.<.3.3.<.4.k.<.j.<.3.<.3.<.>.p. .< e e.%.%.a.<.4.a.4.3.k.k.<.4.k.a.3.<.k.j.X.<.H 8 < ",
"@ > A >.p.X.p.p.q.>.p.q.p.X.p.X.X.p.p.q.>.p.>. .> e 8.q.q.q.p.>.>.>.>.q.p.p.>.p.>.>.p.q.>.X.>.D 5 < ",
"@ : ) X.q.p.q.q.q.q.q.q.q.q.q.q.q.q.q.q.q.q.>. .> > 8.q.q.p.q.q.q.p.q.q.p.q.q.p.p.p.q.p.q.q.<.{ 5 4 ",
"@ : ) X.>.:.>.>.>.>.X.X.X.p.X.>.>.>.>.q.X.<.>...: o 8.:.>.=.>.<.p.>.p.p.p.p.p.p.p.p.p.p.p.p.p.{ 5 4 ",
"> > ) q.q.q.X.q.q.q.p.q.q.q.q.q.q.q.q.q.p.q.q.0.> O 7.p.q.p.X.X.X.>.>.>.>.>.X.>.>.>.>.X.X.>.q.' 5 4 ",
"> @ h { ' H H G G ' H G G ` G ] G G ' G G H G F > > _ G A G G G H H H H G F H H G H G G F H D V 3 4 ",
"@ : @ e # # > > > + # o : @ # # @ # # > > + # # > > > > + s + + s + s s + s + s + s s + s + q > > > ",
"= : : > > : > > < < < > < : < > : < > > < < > # > > < > < > > > < > < < < + < < 7 + + 7 < 7 < + > s ",
"= @ : > > @ : > > : # : : > @ > > > @ > , : > > + > > < < > > < > > + < < < 7 < + > > > + 7 < > < + ",
"@ 5 3 > 4 4 4 4 : 5 > 4 4 4 3 > 4 4 > 4 : 4 > 4 s < s < < < s < < < s > s > s s s < s < s s < s < s "
};
