/* XPM */
static char *result[] = {
/* columns rows colors chars-per-pixel */
"50 100 151 2 ",
"   c #013602",
".  c #013C01",
"X  c #043409",
"o  c #034302",
"O  c #014A01",
"+  c #015401",
"@  c #015B01",
"#  c #085C02",
"$  c #06530B",
"%  c #045D09",
"&  c #0B5C0C",
"*  c #016501",
"=  c #096405",
"-  c #016A01",
";  c #086907",
":  c #046409",
">  c #0A640A",
",  c #026A09",
"<  c #096B0A",
"1  c #027401",
"2  c #097506",
"3  c #017B01",
"4  c #0A740B",
"5  c #097D09",
"6  c #018301",
"7  c #0A8406",
"8  c #038B02",
"9  c #098E05",
"0  c #058409",
"q  c #0A850D",
"w  c #058C09",
"e  c #0B8D09",
"r  c #029502",
"t  c #0A9506",
"y  c #029A01",
"u  c #089902",
"i  c #059409",
"p  c #0B9309",
"a  c #079A09",
"s  c #099A0B",
"d  c #0D8412",
"f  c #0E9310",
"g  c #119512",
"h  c #02A401",
"j  c #09A604",
"k  c #02AB02",
"l  c #04AD09",
"z  c #0CAD0B",
"x  c #14A20E",
"c  c #03B502",
"v  c #09B205",
"b  c #02BA02",
"n  c #0BBD06",
"m  c #04B309",
"M  c #0BB20A",
"N  c #05BC0A",
"B  c #0CBD0C",
"V  c #0CA511",
"C  c #07AE13",
"Z  c #0FAA13",
"A  c #12A414",
"S  c #18A411",
"D  c #16AD13",
"F  c #0DB511",
"G  c #0DBE19",
"H  c #03C403",
"J  c #0AC506",
"K  c #03CD02",
"L  c #09CB05",
"P  c #06C50A",
"I  c #0BC50A",
"U  c #04CA09",
"Y  c #0ACB0A",
"T  c #02D202",
"R  c #09D103",
"E  c #03DC02",
"W  c #0BDA01",
"Q  c #03D20B",
"!  c #0AD20B",
"~  c #0FD90C",
"^  c #1EDB03",
"/  c #11DF0D",
"(  c #0EC311",
")  c #0CCE12",
"_  c #14C411",
"`  c #13CA11",
"'  c #18C912",
"]  c #14CA18",
"[  c #0CD312",
"{  c #03DF12",
"}  c #0DDE14",
"|  c #0EDD18",
" . c #15D114",
".. c #15DC12",
"X. c #24DB02",
"o. c #2BDB01",
"O. c #01E101",
"+. c #0AE505",
"@. c #04EC03",
"#. c #0AEB06",
"$. c #05E50A",
"%. c #0CE50C",
"&. c #05EC0A",
"*. c #0CEB0C",
"=. c #16E402",
"-. c #16ED00",
";. c #1CEA02",
":. c #12E10E",
">. c #11E909",
",. c #03F403",
"<. c #0CF503",
"1. c #03FD02",
"2. c #0AFA04",
"3. c #04F509",
"4. c #0CF60A",
"5. c #04FA0A",
"6. c #09FA09",
"7. c #13F202",
"8. c #1AF302",
"9. c #12FB01",
"0. c #11F50B",
"q. c #05E113",
"w. c #0AE113",
"e. c #13ED13",
"r. c #11E219",
"t. c #0BF411",
"y. c #21EC03",
"u. c #2DF404",
"i. c #2CF903",
"p. c #33F503",
"a. c #39F702",
"s. c #36FA03",
"d. c #39F904",
"f. c #33F908",
"g. c #47F507",
"h. c #45FF03",
"j. c #48FF06",
"k. c #43FF0A",
"l. c #53FE01",
"z. c #5CFF0E",
"x. c #6CFF03",
"c. c #65FF0B",
"v. c #6CFF0A",
"b. c #75FF02",
"n. c #79FC03",
"m. c #73FE09",
"M. c #7CFA09",
"N. c #64FF11",
"B. c #68FF11",
"V. c #74F91D",
"C. c #80FA02",
/* pixels */
"m.M.M.C.n.M.M.M.M.M.n.M.M.M.M.M.M.M.M.M.M.M.M.M.M.M.M.M.M.M.M.M.M.M.M.C.M.M.M.M.n.M.M.M.M.M.n.M.m.V.",
"v.n.M.M.n.n.n.n.n.n.n.n.n.n.n.m.n.n.n.n.n.n.n.n.M.n.n.n.n.n.M.n.n.b.n.n.n.n.n.M.n.b.n.n.n.n.n.n.n.m.",
"x.b.n.b.b.b.b.b.m.n.b.b.x.b.b.b.b.b.b.b.n.b.b.b.b.b.b.b.n.b.b.n.b.b.b.b.b.b.n.b.b.b.n.b.n.b.b.b.b.M.",
"x.x.b.m.b.n.b.m.m.b.b.b.n.b.b.n.b.b.b.b.n.b.b.n.b.b.b.b.b.n.n.b.n.b.b.n.b.b.n.b.m.b.b.b.b.b.b.b.b.m.",
"z.N.c.c.c.b.b.b.c.c.c.v.c.b.n.n.c.c.c.N.c.n.b.x.c.c.c.c.x.m.b.b.b.n.x.v.B.v.v.v.b.b.c.c.c.c.c.v.n.m.",
"7.-.<.7.8.x.b.x.8.7.7.7.#.m.n.v.<.<.7.7.7.x.b.l.y.-.7.7.;.c.b.b.b.n.u.7.7.7.-.a.b.M.8.7.7.7.<.g.n.M.",
"1.1.2.1.1.v.b.v.1.1.1.1.1.B.b.c.1.1.1.1.1.x.x.h.7.1.1.1.2.v.b.b.b.n.8.1.1.1.1.i.n.n.9.1.1.1.1.s.b.n.",
"1.1.1.1.1.m.b.v.1.1.1.1.1.v.n.c.1.1.1.1.1.b.x.h.7.1.1.1.2.x.n.b.b.n.9.1.1.1.1.i.n.n.9.1.1.1.1.s.b.M.",
"<.2.2.6.1.v.b.x.1.1.2.1.<.v.n.z.1.<.1.,.<.m.x.j.8.6.5.2.2.m.b.b.b.b.8.2.2.5.1.p.b.C.9.6.6.5.6.d.v.M.",
"4.4.0.4.<.c.v.c.<.<.<.7.<.c.m.z.,.<.0.4.0.N.v.k.8.3.<.4.7.N.m.m.m.m.8.0.0.0.0.u.v.n.9.4.6.4.4.f.c.N.",
"E E E E E ^ o.^ E E E E W X.o.X.E E E E E o.X.^ W E E O.E X.o.o.o.o.W E O.E O.W X.^ W E E E O.=.p.u.",
"T T T K T K T L U Q T Q T K K H K T T T T K K K K T T T T K K K K K K T T K T K K K K K K K T W -.<.",
"T K Q K T K K K Q K K K K K K U U K K K K T K U K K K K K K K K K L K T K K K K K T K K K K K O.,.3.",
"K T K T K K K T K K T K K K K L K K K K K L L L K K K T T K K K K K K K T K K K K K T K K K K O.3.,.",
"K K K K K K K L K K K H H K K K K K K K K K K K K K K K K K K K K K K K K K K K K K K K K K K O.,.,.",
"H H H H H K K H H H H H H K K K K K T E O.O.O.T T T K K K K K K K K K T K T K K K K n b n b b T $.@.",
"b b b b b U K H b b c b b L H K K K O.1.1.1.3.@.T T T Q K T Q K K K K K K Q K K K K c k k h h b T T ",
"b b c b c H K U c n b c c U K K K K $.2.2.6.6.$.T L K K Q K K T T K Q K K K Q Q K T k h k k h b T T ",
"b c b b c K U L c b c c c U U K K K +.<.5.4.6.+.T L L K U L K L L R T T T L K K Q T k k h k k b L T ",
"H c b c b H U P c c b c b U H U H K / e.t.e.e.:.K L L Y H P J L K Y T E T L Q K K T k k k k k b U K ",
"b b b b c H H J k c c c c P H H H H Y ..w.} ..! H H b b c N b b H H E E E H R L L K c b c v c H H U ",
"b c c c c b b b y r r r r b b b H b b y k h h k H b k k h h h k H b +.@.$.b c n b b H b H b b H b H ",
"H c c b b c b b r r r 8 r c c b b c k y y y h k b b y y y y y h b b %.@.&.b b v c b U H H J I H b b ",
"b c c b c b c c r r r r y m n c c b h r r y u h b b y r r y y y N c *.3.,.b v c b v L L K K L H m b ",
"b c b c c b c v y 8 r r r m c b b c h r y r y h v c y u r r 8 y c c *.,.@.c c c c b K K K K K H c b ",
"H c c b c b c v y r r p y l c c b m h t s y y h k k s s a s s y c b $.@.*.b c m c c K K K H P H m b ",
"b c b c b c b c k l m m M 8 8 8 c b H U H v h y r w v b b H b b c c P L H c c c c c K T T b b b c b ",
"b c b c c b c c c c c c c 3 1 3 c c Y { { b c h 3 1 N T T T T L v c c c c c c c c c T T T c c c c c ",
"b b v b b c c c c c c c c 3 1 6 c c Q q.q.c k u 6 3 b Q T T K K k c c c c v v c c c T E K c c c m c ",
"b c c b b c b b c c c c c 3 3 6 c c ! q.q.c c a 3 3 b K T T R U v c c v c k c c c c T T T c c c c c ",
"b M v c c b b b v c c c c 3 6 6 m c [ { | c m y 6 3 N K T T K U c c c c c c c c c k ! Y T c c l c b ",
"y y h c b K T L N c c c v y u u c c H U U c c h y y N H H H H b c c k h h k h k c c H H H c c c c c ",
"6 3 y c c >.*.>.c c b c c z z v c c c b b c c c v z c b c v c b c l y y y y y h c c c c c c c c c c ",
"3 3 y b b #.#.&.c c c c c c c c c c c c c c c c c c c v v c c c c c h y y y y h v c c c c c c c c c ",
"3 3 t b b #.@.&.b c c c v c b c c c c c c c c c c v c c c v c c c c y y y y y y c c c k c c c c m c ",
"3 1 8 b c &.@.*.c c c c c c c c c c b c c c c c c c c c c c c c k c y y y y y h c c c c c c k c c c ",
"8 6 y N b ~ E ~ c c n c c k k k c b c c b c c c c c c c b b H b v c y y y y y y c c c c c l l k m c ",
"b c c c b y u u b c c c m y y h c c c c c c c c c c c c b *.,.w.k c h y y r y h c k c c k - 1 r c c ",
"b c b b b y y u b c c c M y a y c c c b c c c c c c c c b #.,.%.v c y y y y r h c c c c v 1 1 8 c c ",
"b b b b b y y y c c N m c y y y c c c c c c c c c c c c b *.#.&.c k y y y y y h c c c c c , 1 r c b ",
"b b c c N a y y v c c c m y a y b c c c M c c c c b c c c *.,.&.v v y y y y y h c c c k c 1 1 8 b b ",
"b M F z C i w i M m Z z A y i r b b k l m c c c c c v v c :.>.r.z V y y y y y y l z v c l 1 1 y b b ",
"k h r 6 3 3 3 3 y h 8 3 3 3 3 6 H I h y y c v c c c h y y h h y - - r y y y y y y y k c v 1 1 y U ) ",
"h y 9 1 3 1 1 3 y y 6 1 3 3 1 6 H H h u y c c c c c h y y y y r * @ 9 y y y y y y y c c c 1 1 y L U ",
"h y 8 1 1 1 3 3 y y 6 1 3 1 3 3 H H h r r c c c c c h y y y y p @ @ 9 y y y y y y y m c c 1 1 h L R ",
"y y e 2 1 1 1 1 y r 8 1 1 1 1 3 K K h r r c c c c c h y r y y p * # e y y y a y y y m c c , 1 y T T ",
"h y w 3 3 1 1 3 a y 6 1 1 1 1 6 U H h u r m k c c l y r y y y 9 @ * e t u y y a y y c v c 1 1 h ! T ",
"h y j v v r 8 r y y r w r 8 w r k j 6 ; 1 8 6 8 8 8 r y r y y y 7 7 r y y N b m y y c c k y a h k l ",
"y y c K T y y y y y a y y y r t y t 1 @ * 1 3 1 1 2 9 y y y y y t t y y y ! T J y y l c c v m h y y ",
"h y c T T y t y y y y y y y y y y r 1 @ @ 1 1 2 2 3 9 y u y y y y y y y y Q T n y y m c c c m h y y ",
"h y c T R y u y y y y y y r y y y a 1 @ * 1 1 1 3 1 8 y y y y y y y y y y L K J y y m c c c c h u y ",
"y y c T K y y y y y y y y y y y y y 1 @ @ 2 1 1 1 1 r y y y r r y y y y y T T n y y l v c c c h a y ",
"c c c m b y y a 6 7 i y u y y y y u 3 1 1 6 6 6 3 6 r u y y r r 8 w 8 8 8 b N k y y h k h h k h u y ",
"T U m r r r r p * * 0 r y y y r r y a y a y y y y y y y y r y r 1 1 3 1 1 y y y y y y y y y y y y u ",
"T K v y y r r e * * q y y y y y y u y y y y y y y u u y y y y r 1 1 1 1 1 y y y y y y y y y y y y y ",
"T K c y y r r r * @ q y t y y r y y u y y y y y y y y y y y r r 1 1 1 1 - y y y y y y y y y y y y y ",
"Q K c r y y y p = : d t a y y y y y r y y y y y y u y y y y u r 1 , 1 1 1 y y y y y y y y y y y y y ",
"U I z e r 8 8 e * * 8 y y y y y r y y r y r y r r r a a y y y a 1 1 1 1 1 y y y y y f t g u y y y y ",
"h y 6 1 1 1 1 3 t r F L P r r r r y y r r r r 6 1 1 1 3 3 _ R G 1 1 1 1 1 y y y y y * * @ y y y y y ",
"y r e 1 , 1 1 1 r r M K U y r r r r r r r r r 6 1 1 3 1 3 ' T ( 1 1 1 1 1 y y y y y @ + @ y y y y y ",
"r 8 e 1 1 1 1 1 r r b T L y r r r r r r 8 y t 6 3 1 1 1 6 ` T ( 1 1 1 1 1 y u u u y * # @ h y y y y ",
"y r 9 1 1 1 1 3 r u b T Q y r r r r r r y y r 6 1 3 1 1 6 ) E B , 1 1 1 1 y y y y y * # @ y y y y y ",
"y r w 2 1 2 1 2 i y N Q K y r r y y r r r r y 8 3 1 1 1 3 ] Q I 1 1 1 1 1 y y y y a @ @ @ y y y h y ",
"1 1 - + @ @ @ @ 1 - 2 3 3 @ @ @ @ @ - - , + + + @ * @ @ , 1 1 1 - - D B n 1 - - - 1 * * * 1 - 8 k l ",
"- * @ + + + + + - - - * - + + O + + * * = . o O $ + + + + * * * * - _ T ! = * * * * * * * * * 6 c l ",
"- , % + # + + + = - - - - O + + + + * * * . o o + + @ + + * * - * - _ T R * - * - * * * * * * 6 l c ",
"1 * * + + + + + - - - * - O + + + + * * * . . O + + + + + * * * * * ( T ! * - * * * * * * * * 8 v m ",
"- - : + + + + @ * - - - - + + + + + @ * * o o O + + + + @ * * * * - _ Q ) * * * * * * * * - = 8 c l ",
"@ @ 1 y i @ : * - - * - - + + + + + * * * + + + + O + @ @ * * * @ + p t a * - * - * @ @ * @ @ - 8 0 ",
"O o 7 R ~ * - * - - - - - O + + + + * * : * = @ o o + = * * * @ O o * * * * * - * * @ @ + + + * - * ",
"O O 6 T T * - * - - - - * + + + + + * * = * = + o o % * * * * % O o * - * @ * * - * @ + + + @ * - - ",
"O O 3 Q R - - - - - * - * + + + + + @ * * * * + o . @ - * * * % o o @ * * = - * * * @ + + + + @ - = ",
"O o 5 R T * - - - * - - - + + + O + * * * - * + o o @ * * * * @ o o = * * * = * * * @ + + + + @ - - ",
"+ + 3 K L - - - - - - - - + + @ @ @ @ * * * * @ O O @ * * - * * + O = * * * - * * * @ + + + @ @ - - ",
"- - , - * - - * - - - * - - - , , - * * - * * - - * * * * * * * * * * * * - * * * * @ + + + + @ - - ",
"- - - = = - - - - - - - - - - - - - - - - * * * * - * - - * * * * - * * * * * * * - @ + + @ + * - - ",
"- - - - - - - - - - - * - - - - - - - - * - * * * * * - = * - * * * - * - * * * * * @ + @ + + @ ; - ",
"1 - - - - - - - - * - - - - - - - - - - - * * * * - * * * * * * * * * * * * * * * * @ + + + + @ - - ",
"- - - - - - - * - 1 - - - - > - - - - - - * * * * - * : @ * * * - * * - * - - - * = @ @ + + @ * ; - ",
"1 - - - - - - 1  .[ 8 * * . X o * - - - * - * * * - @ @ @ @ @ + * * * = - [ [ S O o : : * : : * ; - ",
"- - - - * - - 1 T T r * ,     . - - - * * - * * * - @ + + + + @ * - * - - T T x o o > = - - - - ; ; ",
"1 - - - - - - - Q T r - * . X . - - - - - * * * * * @ + + + + + * * * * * R L A O O : - - - - - - ; ",
"- < ; - - - - - T Q u * -     . - - - - - * * * * * @ + + + + + = * = * - R R Z O O : - - , = * ; - ",
"- - - - - - - - Q ! 8 * * .   o = - - - * * * * * - @ + + + + @ - * * = - ! Q A O O = , - - - - - ; ",
"@ + + + + + + @ r 8 1 - - o o o + + + + + + + + + + o o . o o o # + + + + 8 8 5 # @ # + + @ @ @ + @ ",
"O O O O O O O O - * - - - O O O $ O O O O O O O O O .         . O O o O O = * * * * O O O O O O O O ",
"O O O O O O O O - * - - - O O O o O O O O O O o O O . .       . O O O O O * * * * * O O O O O O O O ",
"+ O O O O O O O - - - * * O O O O O O O O O O O O O o     .   . O O O O O * * * * * O O O O O O O O ",
"+ O O O O O O O - - - - = O O O O O O O O O O O O O o .   .   . O O O O O - * * * - O O O O O O O O ",
"@ + + + + + + + @ > & : & O O O O O O O O + + + O O o . . . . o o O O O O & % % % % O + O O O O @ @ ",
"- = - , : , , > O O O O O O O O O O O O O , < @ + O O O O o O o O O O O O O O O O O O O O O O % 4 4 ",
"- * - > , < < > O O $ o O O O O O O O O O , , @ O O O O O O O O O O O O O O O o O o O O O O O @ 1 1 ",
"- - - - - - - > O + O O O O O O O O O O O - - = O O O O O O O O O O O O O O O O O O O O O O O @ 3 1 ",
"1 - 1 - - - - > + O O O O O O O O O O O O - ; * O O O $ O O O O O O O O O O O O O O O O O o O @ 1 1 ",
"* : = - - = = > O O + O O O O O O O O O O % > % + O o o o O O O O O O O O O O O O O O O O O O @ - < ",
"o . + - - + O O O O % : > + O O O O O O O O O O O O o . . o O O O O O O o O O O O O O O O O O O O + ",
".   O - - O O O O $ % - - O O O O O O O O O O O O O .     o O O o O O o o o o o $ o $ o o o O O $ o ",
"    O - - O O O o o % - > O O O O O O o O O o $ O O o     o O O O O O O $ o $ o O o o o O O + o o o ",
". X O < ; + o o O $ # - = O o O O O O O O o O o O O       $ O o o $ o O o $ o $ O $ o $ o $ O o $ o ",
"X X o & > o o o o o $ & & o o o o o o o o o o o o o     X o o o o o o o o o o o o o o o o o o o o o "
};
