/* XPM */
static char *result[] = {
/* columns rows colors chars-per-pixel */
"50 100 177 2 ",
"   c #013165",
".  c #02356E",
"X  c #002F71",
"o  c #013571",
"O  c #013874",
"+  c #013679",
"@  c #023D7C",
"#  c #07407E",
"$  c #3B5678",
"%  c #395A7E",
"&  c #014585",
"*  c #004A86",
"=  c #01468C",
"-  c #00488D",
";  c #085C85",
":  c #014492",
">  c #004892",
",  c #004B9D",
"<  c #03529D",
"1  c #385B81",
"2  c #077291",
"3  c #0C7296",
"4  c #024EA3",
"5  c #044EA8",
"6  c #0253A4",
"7  c #015AA4",
"8  c #0155AE",
"9  c #0853AF",
"0  c #0159AB",
"q  c #0255B1",
"w  c #0159B1",
"e  c #0164AE",
"r  c #0B6CA9",
"t  c #0073A5",
"y  c #0375AA",
"u  c #0A76AD",
"i  c #027DAD",
"p  c #0978AF",
"a  c #0364B2",
"s  c #056DB3",
"d  c #0174B7",
"f  c #0F76B1",
"g  c #027EB4",
"h  c #097CB6",
"j  c #0B76B9",
"k  c #037EB9",
"l  c #097BB9",
"z  c #008EA6",
"x  c #0182AD",
"c  c #0789AE",
"v  c #0392A1",
"b  c #0196AD",
"n  c #0181B4",
"m  c #038BB3",
"M  c #0A89B3",
"N  c #0282B9",
"B  c #0A81BB",
"V  c #058DBA",
"C  c #0292B6",
"Z  c #029CB6",
"A  c #0393BA",
"S  c #0892BD",
"D  c #029BB9",
"F  c #089ABE",
"G  c #01BBAF",
"H  c #02A2B6",
"J  c #02A2BA",
"K  c #08A9BF",
"L  c #1CA5BF",
"P  c #1AA8BC",
"I  c #06B4B5",
"U  c #02BCB5",
"Y  c #08BBB6",
"T  c #03BCBA",
"R  c #09BABC",
"E  c #01C0B2",
"W  c #0499C0",
"Q  c #03A7C1",
"!  c #03ADC2",
"~  c #09ACC1",
"^  c #0AAECB",
"/  c #04B4C5",
"(  c #01BCC6",
")  c #0AB8C5",
"_  c #05B6C9",
"`  c #0BB4CA",
"'  c #03BCC9",
"]  c #0BBACB",
"[  c #0ABED1",
"{  c #0AB2D9",
"}  c #03C2C6",
"|  c #0DC4C7",
" . c #03CCC5",
".. c #03C4CB",
"X. c #0AC5CB",
"o. c #03CACD",
"O. c #0BCDCB",
"+. c #12C3C9",
"@. c #03C7D2",
"#. c #0BC2D3",
"$. c #03CBD2",
"%. c #0BCCD4",
"&. c #03D1D5",
"*. c #02DBD5",
"=. c #09D8D5",
"-. c #03D6DA",
";. c #0AD6DB",
":. c #02DADC",
">. c #0ADBDC",
",. c #14D5DB",
"<. c #11D8D9",
"1. c #24D3DB",
"2. c #33DFD6",
"3. c #04E0DE",
"4. c #0AE1DE",
"5. c #2AE6DB",
"6. c #02DDE1",
"7. c #0ADEE4",
"8. c #03E4E4",
"9. c #0AE5E5",
"0. c #03EAE6",
"q. c #0AEAE5",
"w. c #05E7E9",
"e. c #0AE6E9",
"r. c #03EBEA",
"t. c #0BEBEA",
"y. c #13EDE6",
"u. c #13EDE9",
"i. c #1BEEEA",
"p. c #05F0E9",
"a. c #09F0E9",
"s. c #15F1EE",
"d. c #1CF4ED",
"f. c #1CF6F0",
"g. c #25F2E7",
"h. c #29F2E6",
"j. c #23F5ED",
"k. c #2AF4E8",
"l. c #2DFAEE",
"z. c #33F7ED",
"x. c #3EFFEE",
"c. c #22F6F1",
"v. c #29F6F4",
"b. c #26FBF5",
"n. c #2CFDF4",
"m. c #23FCF8",
"M. c #2CFEFA",
"N. c #33FDF4",
"B. c #3DFFF4",
"V. c #34FFFA",
"C. c #3BFFF9",
"Z. c #47F7EB",
"A. c #4EF6EC",
"S. c #41FEEE",
"D. c #4CFCED",
"F. c #54F5EF",
"G. c #53FBEC",
"H. c #59FAEC",
"J. c #42FFF2",
"K. c #4CFDF1",
"L. c #42FFFD",
"P. c #51FCF1",
"I. c #5DFFF4",
"U. c #5FFFF9",
"Y. c #63FFEE",
"T. c #6CFEEF",
"R. c #77FFEE",
"E. c #7BFFEE",
"W. c #65FEF4",
"Q. c #6BFFF6",
"!. c #64FFF9",
"~. c #6AFFFA",
"^. c #75FFF6",
"/. c #7BFFF5",
"(. c #74FFF9",
"). c #7BFFF9",
"_. c #80FEF3",
/* pixels */
"E._.).).)._.).).)./././.).)./.)./.).).^.)./././.)./.(./././.)./.)././.).).).).)././.)./.).)././.).R.",
"E._.).).).).).).).).)./.).).).).).).).).).).).^.).).).).).).).).).).)././.).).).)./.(.).).).).).).^.",
"_._._.)././././.^././././././.E././././././././.E././././././././././././.E././././.R././././././._.",
").).).)./.^.E././././././././.R.^.)././././.E./././././.E././.E.E.R.^.E.E././.E././.^.^././.E./.)./.",
"!.!.^././.I.I.I.W.H.(././.Y.W.W.W.W.(.).^.W.W.!.W.W.^././././.T.T.W.Y.Q.^././.)./._.U.W.Q././.W.!.W.",
"G.D././._.z.Z.S.S.x.(./.^.G.G.D.D.G././.Q.A.B.B.S.Z.Q././.^.^.Y.F.A.D.A.F./././././.x.x.H././.H.G.F.",
"D.K.^.).).B.B.B.B.B.(./.^.P.D.K.K.D.^.^.Q.D.B.B.B.J.Q./././.R.Y.K.K.K.K.H././././._.x.B.G././.G.D.K.",
"D.P.^././.B.B.B.B.B.(./.^.P.D.P.P.D.^.(.~.D.B.B.B.Z.Q./././.^.Y.K.P.P.D.H./././././.S.B.G././.G.D.G.",
"D.K.Q.(.^.J.B.B.B.J.~.(.(.P.K.P.P.K.Q.(.~.K.B.J.B.K.!./.).(.Q.I.P.P.K.K.P.(./.(.(.^.B.J.Z.(.).G.K.K.",
"K.J.!.W.W.J.B.J.J.J.!.Q.!.K.J.K.J.K.W.!.U.J.B.J.J.J.U.Q.~.~.~.I.K.J.J.K.K.~.~.Q.~.~.B.J.K.~.~.K.J.D.",
"J.J.D.A.D.B.B.B.J.J.P.G.D.J.J.S.S.S.D.A.K.J.J.B.B.J.D.D.D.A.A.D.S.B.J.J.K.D.D.D.K.F.J.J.K.K.D.J.J.Z.",
"S.J.J.K.S.J.B.J.B.J.S.J.S.S.J.J.S.B.J.x.B.J.J.L.J.J.J.K.S.J.J.S.J.J.J.J.J.S.S.S.J.J.J.J.J.J.J.B.J.S.",
"J.J.J.S.x.x.J.S.S.S.S.x.J.B.S.J.J.J.x.x.J.B.J.J.J.x.S.x.x.x.x.x.B.J.J.B.B.B.x.x.J.B.B.J.B.B.B.B.J.S.",
"J.J.J.B.B.x.x.S.S.J.x.B.B.B.B.B.B.J.x.x.x.x.B.S.J.B.x.x.B.x.x.B.B.B.J.B.B.x.x.B.B.B.B.B.B.B.B.B.B.x.",
"J.J.x.N.B.B.B.B.B.B.N.B.B.J.J.B.B.B.C.B.N.B.B.B.B.B.B.B.B.B.B.B.J.B.J.J.B.B.B.B.B.B.B.B.B.J.C.J.x.S.",
"S.J.y.q.t.t.a.r.a.p.p.p.y.B.J.B.B.J.u.a.a.a.s.p.r.a.s.r.s.t.u.n.B.B.J.L.V.t.t.p.r.t.p.p.p.t.p.B.J.x.",
"J.B.q.r.r.w.r.r.r.r.r.r.9.B.J.B.B.B.t.r.r.w.r.r.r.r.r.w.r.r.t.b.B.L.J.B.V.r.r.r.r.r.r.r.r.r.0.B.B.S.",
"J.B.q.r.r.r.r.r.r.0.r.p.9.B.B.B.B.J.r.r.r.0.r.r.r.r.r.w.t.t.t.v.C.B.J.B.V.r.t.t.t.r.r.r.r.r.0.B.B.B.",
"B.B.q.r.r.e.w.r.0.q.0.a.e.B.B.J.J.C.r.r.0.0.8.q.0.0.q.q.r.r.e.m.V.V.C.C.V.r.r.r.r.q.q.q.t.r.r.N.C.B.",
"n.l.t.r.r.u.t.s.y.s.r.0.w.N.B.B.J.n.r.r.r.i.y.y.u.t.u.u.t.r.t.c.M.V.n.N.m.r.r.t.9.9.0.q.t.q.r.b.n.l.",
"j.c.t.r.r.j.d.c.j.j.r.r.e.d.u.i.u.d.r.0.0.c.d.j.d.c.c.j.s.0.t.s.f.d.d.c.f.p.r.f.j.f.f.j.f.r.r.f.j.i.",
"u.u.t.t.r.N.n.n.N.N.r.r.r.t.r.r.p.q.r.p.q.N.n.N.b.M.N.N.c.r.r.r.u.u.t.i.a.r.r.M.C.C.V.V.m.r.t.u.u.y.",
"q.r.r.t.r.B.V.C.B.V.r.q.t.r.r.r.r.q.r.0.t.C.B.C.C.C.B.B.V.r.r.t.q.9.0.q.r.r.r.n.V.B.N.C.M.w.r.t.e.w.",
"r.r.r.r.0.J.B.B.B.B.e.r.r.r.r.r.r.r.r.r.q.C.B.B.J.J.J.B.B.t.r.t.r.r.r.r.t.p.r.N.B.B.B.J.V.t.r.r.e.e.",
"0.r.t.r.w.J.B.x.N.C.9.0.r.r.r.r.p.p.r.t.9.B.B.x.x.S.S.x.N.w.0.r.t.r.r.r.r.r.r.n.S.S.S.S.N.r.r.r.r.0.",
"r.t.w.w.8.k.g.g.g.j.4.8.w.t.r.r.r.r.w.9.9.c.z.h.k.h.h.k.d.w.8.8.8.8.r.r.t.w.w.d.h.k.h.h.d.w.w.r.r.0.",
"r.r.8.:.6.>.*.>.4.>.>.:.6.t.r.r.r.t.:.:.:.>.>.>.:.3.3.>.:.:.6.:.6.6.w.r.r.6.:.4.9.>.8.>.3.6.6.w.r.q.",
"r.t.6.:.:.>.*.*.*.>.>.:.-.r.r.r.r.r.:.:.:.:.:.6.:.:.:.:.:.>.;.:.>.-.w.r.r.:.:.:.:.:.:.:.*.:.:.e.0.0.",
"0.t.3.:.:.:.:.:.:.:.:.-.:.r.r.0.r.r.:.:.:.:.:.:.:.:.:.:.:.:.:.:.:.:.r.r.t.:.>.:.:.:.:.:.:.:.:.0.0.r.",
"t.r.3.:.:.:.:.:.:.:.:.-.>.0.r.0.r.r.:.:.:.:.:.:.:.:.:.:.:.:.:.:.>.:.e.r.r.:.:.:.:.-.:.:.:.:.:.0.q.r.",
"q.w.8.:.>.:.:.:.:.:.:.:.:.r.r.r.w.r.-.:.:.:.:.:.:.:.:.:.>.:.:.:.:.:.8.w.0.:.:.:.:.*.:.:.:.:.>.w.0.r.",
"8.:.8.w.r.:.:.:.:.:.:.:.:.:.:.:.:.:.:.:.:.:.:.:.:.:.:.:.:.8.q.3.:.:.8.:.:.>.:.:.:.:.:.:.:.:.>.:.>.:.",
":.:.w.r.r.-.-.6.:.*.:.:.:.:.:.:.:.:.:.:.:.:.:.:.:.:.:.:.:.0.0.8.6.:.:.:.>.>.:.:.:.:.:.:.:.:.:.:.:.:.",
":.:.8.0.0.-.:.:.:.:.>.:.:.:.:.:.>.:.:.:.:.:.:.:.:.:.:.:.:.0.0.3.6.6.6.:.:.6.:.:.:.:.:.:.:.:.:.:.:.>.",
"-.>.w.r.0.-.:.:.:.:.:.:.:.:.:.-.=.:.:.;.=.:.:.:.:.:.:.:.:.r.t.8.:.-.:.:.:.:.6.:.:.:.:.-.:.:.>.:.:.6.",
"-.-.t.r.e.-.;.;.-.-.:.-.:.:.:.:.6.-.:.:.>.:.:.;.>.>.>.:.>.t.r.6.:.6.:.;.:.>.:.>.>.>.>.;.>.*.=.>.:.6.",
"-.-.$.o.@.......} ..o... .} o.$.-.:.@.....} o.o.o.o.....@.$.$.-.:.:.o.X.X.X.....o.o...X.%.z.B.>.:.:.",
"*.*.} ( ( ( ( ( ( ( ( ( ( ( ( $.-.-.( ( ( ( ( _ ( _ ( ( ( ' ( %.;.>.( ( ( ) ( } ( } ' ' +.P.K.;.;.6.",
"=.*.( ( ( ( ( ( ( ( ( ( ) ( ( $.-.:.' ' ( ( ( _ ( ' ( ( ( ( ( &.>.;.' ( ( ( ( ( ( ( ( ( | G.P.;.;.:.",
"-.>.( ' ( ( ( ( ( ( ( ( ' ( ' @.-.:.) ' ( ( ( ( ( ( ( ( ( ( ' ;.;.6.( ( ( ( ( ( ( ( ( ( X.K.G.<.-.:.",
";.;.( ( ( ( ( ( ( _ ( ( ' ( ' @.=.;.( ( ( ( ( ( ( ( ( ( ( ( ( %.;.;.' ( ( ( ' ' ' ( ' ' O.J.K.,.-.-.",
"$.$.( ( ( ( ( ( ( ' ( ( ( ( ( ' $.&.' ( ' ( ( ' ( } ( } ( ( ( %.$.$.' ' ( ( ' ' ( ' ' ' ..5.2.#.$.$.",
"} } ( ( ' ( ( ' ( ( ( ( ( ( ( ( ( ..( ( ' ( ( ( ( ) ) ) ( ( ( } } ( ( ( ( ( ( ( ' ( ' ' } ( ( ( ( ..",
"} } ( ( ( ( ( ' ( ( ( ( ( ( ( ( ( ( ' ( ' ( ' ( ( } ) ( ( ( } ( ( } ( ( ( ( ( ( ( ( ' ' ( ( ( } ( ( ",
"( } ' ( ' ' ' ' ( ( ' ( ( ( ' ( ( } ( ( ' ( ( ( ) ( ( ( ( ( ' ' ( ' ' ( ( ( ( ( ( ( ( ( ( ( ( ( ' ( ",
"' ( ] ( ( ( ( ' ( ( ( ( ' ( ( ( ( ( ( ( ' ' ( ' ( ' ( ( ' ' ' ( ( ( ( ' ' ' ' ' ' ' ' ' ' ( ( ' ' ( ",
"( ( / ] ` ) _ [ ' ] ] ] _ ' ( ( ' ' _ _ ) / / ( ' X.( ( ' ] _ _ ' ' _ _ ` _ _ ` ` ` ` ` ( ] ( ' ( T ",
"( } J Z Z Z Z D Z Z Z D Z ' ' ( ' ' H Z Z Z H 1.L.L...] ' Z Z ! ] _ J Z Z Z Z Z D Z H Z J ( ( ( ( ( ",
"( ..J Z Z Z Z Z Z Z Z Z Z } ( ( ' [ Z Z Z Z D 1.B.B.' ( ] D Z _ _ _ Z Z Z D D Z Z Z Z Z J ( ( ( ( ( ",
"' ' J Z Z Z D D Z Z Z Z Z ' ' ( ' ' Z Z D D F 1.J.L.( ' ' D Z ! ( _ Z Z Z Z Z D Z Z Z Z D ( ( ( ( ' ",
"' ] H Z D Z D D Z Z Z Z D ' ] ( ' ' Z D D Z D 1.S.L.T ( ' D D / ( _ D Z D Z D D Z Z Z Z D ( ( | ( ( ",
"] ] D Z Z A D Z Z Z Z Z D _ ' ( ( ' Z F W F W 1.J.B.( ( ( D D ! ' [ Z Z D D D D D Z Z H J } ( ( ' ) ",
"J J F Z Z D D Q #.[ J Z D J Z J J J D D D D Z / X.X.( ( ' W J J J J Z Z F Z Z D A Z 7.7.;.( T J H H ",
"Z J D Z Z Z Z ~ @.$.Z D D Z Z D D D D D Z Z Z ! ( ( ( ( } W D Z D D D Z Z Z D Z Z Z r.r.4.U T H Z Z ",
"Z Z Z D Z Z Z K $.@.Z Z D D Z D D D D D D Z Z ! ' ( ' ( ' D J F A D D Z Z Z D D D W t.r.>.E U Z Z C ",
"Z J D Z Z Z Z K $.$.Z Z D D Z D D Z W D D D D I ( ( } ( ( D D D Z D D Z Z D Z D D W r.r.3.U U H Z Z ",
"Z Z D Z D Z A ! $.#.Z Z D Z Z D D Z D D D A A K ' ( ( ( ] D D D D D D D D Z D D D A t.r.4.U U Z Z F ",
"Z D m m m c M C W W m m V m V A A D V m m m m V A A A A A V m Z D Z Z Z A A V M m n O. . .U E Z Z Z ",
"D W x x i i g x g i i n g g i C F D n n g n g n N N g g i g k m Z D D D A n g g k h U U U U U Z A Z ",
"D W n n g g g g k k k g n g g C D D n n n k g g g g i g k n n V Z D D D S n N N n N T T Y I U Z Z D ",
"W W m n g g N k g n n n n n n V F Z n n n n g g g i n g k n n A Z Z Z Z A n n n n k T T T Y U Z D D ",
"W W n g g k k k k n n n n n n C D F n n n n n x x g n n g g n S Z J W F A n n n n g R T T T E Z D A ",
"S A n n i C V n g n n n n n n m C C n n n n g n g g n g k z z A A A A A S n n n n N K ! ~ ! I Z A A ",
"n n g g i $.$.! g g g g N N g i x i g g n n n n n n n n V T ) b n n n n n n n n n n c i n i i i x i ",
"n n g g g ..$./ g g g g n k g n g n g n n g n g n n g n N T T b x n n n n n n n n n n g k n g g n x ",
"n n n N g  .@.! g n n n N n n n n i n g g n n n n g n n n T R b m n n n n n N n n n g n g n n n n g ",
"N N N n x  .o./ n n n n g n g n n g x g g g n n n n n g x U T b x n n n N n n n n n n n n n n N g g ",
"n N h h g ..#.! k N B k g i n g g h g g k g h l l g k h x Y ~ C g k k N B k k h h h h h h h h n n x ",
"n N e 0 8 8 w w q q 8 w 0 g k s 6 9 q 0 w 8 q 8 8 8 8 q 8 0 0 0 6 0 l n j 7 8 8 8 0 0 8 8 0 8 ^ ' _ ",
"n n 7 8 8 8 9 9 q q q q 6 k g s 8 q q q q q w q q w q 8 8 9 q q 8 8 j n j 8 8 q q q 8 8 8 0 8 ` ' ] ",
"n n 7 0 8 9 0 q 8 8 8 8 8 g N s 6 8 9 q q 8 8 8 q 8 8 0 9 q q q 8 9 k g j 7 6 8 8 8 8 8 8 0 8 ^ ] ) ",
"k n 7 8 8 q 8 8 8 8 8 8 8 g n s 8 8 8 8 q q 8 8 8 q 8 q 0 8 8 8 8 8 k k j 7 8 8 0 8 8 0 8 8 8 ` ( ' ",
"k B 0 8 8 q 8 8 q 8 q 8 8 n B s 8 q q 8 8 8 8 q 8 8 8 8 q q 8 8 8 8 j k j 0 8 q 8 8 8 q 8 q q { ] ] ",
"a e 8 8 8 8 q 8 8 8 q 8 8 e e 0 0 0 8 8 q q 8 8 8 q 8 q 8 8 q 8 8 q a a e 8 q 8 8 8 q q 8 q q d i t ",
"0 8 8 8 8 8 8 8 q 8 8 8 q 8 q 0 8 q q 8 8 8 8 8 8 8 8 8 q 8 8 8 8 q 6 8 8 8 8 8 8 q 8 q 8 8 q 5 q 8 ",
"0 8 8 8 8 8 q q 8 8 q 8 8 9 q 8 0 8 8 8 q 8 q 8 q 8 q 8 8 8 8 q q q 8 q q 8 8 q 8 8 8 8 q 8 5 8 q 6 ",
"8 8 0 q 8 8 8 8 8 8 8 8 8 8 9 q q 8 q 8 q 8 8 8 8 q 8 8 8 8 8 8 8 8 8 8 8 8 q 8 q 8 q 8 q 8 8 8 8 6 ",
"8 8 0 8 8 q 8 q 8 q 8 8 q 8 8 9 q q 8 8 8 8 8 q q 9 8 8 q q q q 8 8 8 q 8 8 8 8 8 8 q 8 8 q 9 q q 5 ",
"q 8 a a a 6 4 4 4 4 4 4 6 4 4 8 w q < 6 4 4 6 , 4 4 e e 0 4 4 4 4 4 q 8 8 6 < < , , 8 8 q , 4 q q 8 ",
"q 8 l n i & & & & & & & & & & , 0 q = & & & & & & * u x y = & & & : 7 8 7 = - - = & 8 8 4 = : 5 q 8 ",
"q 8 j g k = - = = - - - - : = , 8 9 - - - = = - = * u g g = = = = > 9 9 7 : - - = = 8 9 , = = 8 9 9 ",
"q 8 h g n = - > - = - - - = & 4 8 8 = - = - - - - - u g h = > - - - 7 6 6 = : = = = 8 q 5 : = 5 9 9 ",
"8 5 h g g = - = = - = - - = = 5 8 q > - = = = = - - y i g = = - - & 7 7 7 = = = = = 9 q 5 : = 8 e 9 ",
"6 6 u u f - = = - = - = = - = , 5 8 > = - = - - - - r u p = - = = = < 9 < = = = - & 4 8 , = = 4 7 7 ",
": : * - - - = - = = - = = - = - & = = = = = - = = = = - - = - = = = - > = > = = = - & & : : : : : : ",
": > = = & - = = - = = - - = - - = = = = = = = - - - - - = - - = - = = = = = = = - = = : = = = : = = ",
"= - = = = - = = = - = - - = = - = = = - - - = = = - = - - = = - = - & = = = = = = = = = : = = = : : ",
"> - = & = = = = = = = = = - = = - - - = = = - = - = & - = = - = - = = = = - & = = = = = = = = = : # ",
"- - & & = & * * & & & = & - = - = = = = & = & = & = = & & & = & = - & & = & = = = = & = # = = : : # ",
": - @ + O L P c o O O O O & - = = = o O O O O o O O o O O O O # = = o o O o o o o o o O + : & = : : ",
"> - O O   U G v . . o o O & > = & = O o o o . o o o o o o o . @ = = o o o o o o X o o o + : = = & : ",
": - O o   T U v . . o o o & - = = = o + o o O O o o . o o o . # - = o o o o o o o o o X X : = = : # ",
"> * O .   T T v . . o o o & = = = > o o o . . . . . . . . O . # = = o . . o . o o . o . + : = : : : ",
"= - O .   Y R v . . . o o & & & & - o . . . . . . . . . . . . # & * o . . . . . . . . . X = : = : + ",
"# @ . . . 3 2 ; . . . O . # @ @ @ # o . . . . o . . . . . . . O O @ O . . . o . . . . . . + @ + + + ",
"o o . . . . . O . . o . O o o . o . o o o . . . . . . . . . . . O . . . . . . . . . . o . o . .   X ",
"o . . . . . o o . . . o . o o . . . . . . . . . . o . o . o . . . . o . . o . . o . . . . . . . . . ",
"o . . o . . . . o o . . . o X o . . . . o . . o o o . . . . . . . . o . . . . . . . . . . . . o .   ",
". . . . . . . . . . . . . o . . . . . . . o o . # o . . o . . . . # . . . . . . . . . . . . . . . . ",
"$ % % 1 1 % % 1 % % 1 1 % % % % % % % % $ 1 % % $ 1 % $ 1 % $ % $ 1 1 $ 1 % $ 1 % % % % % % 1 $ % $ "
};
