/* XPM */
static char *result[] = {
/* columns rows colors chars-per-pixel */
"50 100 154 2 ",
"   c gray42",
".  c #6C6C6C",
"X  c gray43",
"o  c #6F6F6F",
"O  c gray44",
"+  c #717071",
"@  c #717171",
"#  c #727272",
"$  c gray45",
"%  c #747474",
"&  c gray46",
"*  c #767676",
"=  c #777677",
"-  c #777777",
";  c gray51",
":  c #848484",
">  c gray52",
",  c gray53",
"<  c #8E8E8E",
"1  c #909090",
"2  c gray57",
"3  c #939393",
"4  c #959595",
"5  c gray59",
"6  c #979797",
"7  c #989898",
"8  c gray60",
"9  c #9A999A",
"0  c #9A9A9A",
"q  c #9B9A9B",
"w  c #9B9B9B",
"e  c #9C9B9C",
"r  c gray61",
"t  c #9D9D9D",
"y  c gray62",
"u  c #9E9E9F",
"i  c #9F9F9F",
"p  c #A0A0A0",
"a  c gray63",
"s  c #A2A2A2",
"d  c gray64",
"f  c #A4A4A4",
"g  c #A5A5A5",
"h  c gray65",
"j  c gray66",
"k  c #A9A9A9",
"l  c #AAAAAA",
"z  c #ABAAAB",
"x  c gray67",
"c  c #ACACAC",
"v  c #ADACAD",
"b  c gray68",
"n  c #AEAEAE",
"m  c #AFAEAF",
"M  c #AFAFAF",
"N  c #B0AFB0",
"B  c gray69",
"V  c #B1B0B1",
"C  c #B1B1B1",
"Z  c #B2B1B2",
"A  c #B2B2B2",
"S  c #B3B2B3",
"D  c gray70",
"F  c #B4B3B4",
"G  c #B4B4B4",
"H  c #B5B4B5",
"J  c gray71",
"K  c #B6B5B6",
"L  c #B6B6B6",
"P  c #B7B7B7",
"I  c gray72",
"U  c #B9B8B9",
"Y  c #B9B9B9",
"T  c gray73",
"R  c #BBBABB",
"E  c #BBBBBB",
"W  c #BCBBBC",
"Q  c #BCBCBC",
"!  c #BDBCBD",
"~  c gray74",
"^  c gray",
"/  c #BFBEBF",
"(  c gray75",
")  c #C0BFC0",
"_  c #C0C0C0",
"`  c #C0C0C1",
"'  c #C1C1C1",
"]  c #C1C1C2",
"[  c gray76",
"{  c #C2C2C3",
"}  c #C3C3C3",
"|  c gray77",
" . c #C5C5C5",
".. c #C6C6C6",
"X. c gray78",
"o. c #C8C7C8",
"O. c #C8C8C8",
"+. c gray79",
"@. c #CACACA",
"#. c #CBCBCB",
"$. c #CBCBCC",
"%. c gray80",
"&. c #CDCDCD",
"*. c #CECECE",
"=. c gray81",
"-. c #D0D0D0",
";. c gray82",
":. c #D2D1D2",
">. c #D2D2D2",
",. c #D3D2D3",
"<. c LightGray",
"1. c #D3D3D4",
"2. c gray83",
"3. c #D5D5D5",
"4. c #D5D5D6",
"5. c gray84",
"6. c #D7D7D7",
"7. c #D8D8D8",
"8. c gray85",
"9. c #DADADA",
"0. c gray86",
"q. c gainsboro",
"w. c #DDDDDD",
"e. c #DFDFDF",
"r. c #E0DFE0",
"t. c gray88",
"y. c #E1E1E1",
"u. c #E2E2E2",
"i. c gray89",
"p. c #E4E4E4",
"a. c gray90",
"s. c #E7E6E7",
"d. c #E7E7E7",
"f. c #EAEAEA",
"g. c gray92",
"h. c gray93",
"j. c gray95",
"k. c #F4F4F4",
"l. c gray96",
"z. c #F6F6F6",
"x. c #F7F6F7",
"c. c gray97",
"v. c #F8F7F8",
"b. c #F8F8F8",
"n. c #F9F9F9",
"m. c #F9F9FA",
"M. c #FAF9FA",
"N. c gray98",
"B. c #FBFAFB",
"V. c #FBFBFB",
"C. c gray99",
"Z. c #FDFDFD",
"A. c #FEFEFE",
"S. c white",
/* pixels */
"2 < < 1 1 1 1 1 1 1 1 1 1 1 1 1 1 1 1 1 1 1 1 1 1 1 1 1 1 1 1 1 1 1 1 1 1 1 1 1 1 1 1 1 1 1 1 1 1 2 ",
"X O O & * * * * * * * * * * * * * * * * * * * * * * * * * * * * * * * * * * * * * * * * * * * * * - ",
"o @ @ * * * * * * * * * * * * * * * * * * * * * * * * * * * * * & * * * * * * * * * * * * * * * * & ",
"o O O & * * * * & * & * * * * * * * * * * * * * * * * * * * * & $ * * * * * * * * * * * * * * * * * ",
"o O o & * & & * % * $ # $ % & & & * * * * * * * * * * * $ & % $ $ & & & * & % % % % % % % % % - * * ",
"o O O r w y y i , : , n n j r r r t t t t t t t t t t t p , > ; x c c c n y y y y y y y y y y p & * ",
"o O O ;.;.;.;.<.i r i A.A.5.3.3.3.2.2.2.2.2.2.2.2.2.2.2.<.i w r b.n.n.n.n.;.2.2.2.2.2.2.2.2.2.2.% * ",
"o O O ;.;.;.;.<.t r y Z.Z.3.2.2.2.2.2.2.2.2.2.2.2.2.2.2.<.i w w n.n.n.n.n.;.2.2.2.2.2.2.2.2.2.2.& * ",
"o O O ;.;.;.;.>.w r i C.C.2.>.<.<.<.<.<.<.<.<.<.<.<.<.>.:.p r t b.n.n.n.n.;.<.<.<.<.<.<.<.<.>.<.& * ",
"o O o ;.=.=.=.-.t t y C.C.2.;.2.2.2.2.2.2.<.>.>.>.>.>.;.;.p r t n.n.c.b.z.*.>.>.>.>.>.>.>.>.>.-.& * ",
"o O X 5.>.>.>.<.t t y Z.Z.2.;.-.-.-.-.-.-.;.;.;.;.;.>.>.>.p r t n.n.V.l.c.-.>.>.>.>.>.>.>.>.>.=.& * ",
"o O O B M M n M r t y Z.Z.C M n n n n n n ^ ( ( ^ ^ P b B r r t n.n.0.x c l n B B B B B B M n M % * ",
"o O @ B C B M M w r y Z.Z.A n B M n n n n ^ ( ( ( ( P n C t r t n.n.8.n n M M M M M M M M M M M % * ",
"o O @ C A M M M w r i V.C.C b M M M M M M ~ ( ( ( ( P n B y r t n.n.8.n n n M M M M M M M M M M % * ",
"o O @ C A M M M w r i N.V.B b M M M M M M ~ ( ( _ _ P n M y r t c.n.7.n n n M M M M M M M M M B % * ",
"o O @ A A M B C r r y S.S.B n M M M b c c ^ ( _ ' [ T n M y r r V.B.q.M M M M M M M M M M B M M % * ",
"o O @ A A B B C r r r 9.0.z n M M M D Q Q ^ ( ~ S C n n M t r i 9.7.O.M M M M M M M M M n ( ( _ % * ",
"o O @ C C B C C r r p <.2.n n M M M D ( ( ( ( ( M M M M B t r y 2.<.[ M M M M M M M M M M ) ' _ & * ",
"o O @ C C B C C r r a >.2.n n M M M A ( ( ( ( ( M M M M B r r y <.<.[ M M M M M M M M M M ) ' _ & * ",
"o O @ C C B C C r r a ;.<.M n M M M A ( ( ( ( ( M M M M B r r y <.<.[ M M M M M M M M M M _ ' _ & * ",
"o O @ C C B B B r r a ;.<.M n M B B D ( ( ^ ' ' M M M M B r r y <.<.[ M M M M M M M n b c [ ' _ & * ",
"o O @ C C B M M r r a ;.<.M n M L L P ( ( I P P M M M M B r r y <.<.[ M M M M M M M P Y I ' ' _ & * ",
"o O @ C C B M M r r a ;.<.M n M _ ( ( ( ( B M n M M M M B r r y <.<.[ M M M M M M M I ' ' ' ' _ & * ",
"o O @ C C B M M r r a ;.<.M n M _ ( ( ( ( B M n M M M M B r r y <.<.[ M M M M M M M I ' ' ' ' _ & * ",
"o O @ C C B M M r r a >.>.n n M _ ( ( ( ( B M M M M M M C r r y 2.<.| M M M M M M M I } } } ] _ & - ",
"o O @ C C B M M r r a >.>.n b M _ ( ( ( ) B M M M M M n B r r y 2.<.| M M M M M M M Y } [ } } ' & - ",
"o O @ C C B M M r r a >.>.n A D _ ( ( ( ( M M M M M n M M r r y 2.<.| M M M M M B C J } [ Q ~ T & - ",
"o O @ C C B B B r r a >.>.( [ _ _ ( T b b M M M M M C [ ' t r y 2.<.| M M M M B } } ' } } n M b & - ",
"o O @ C C B C C r r a >.>.[ _ _ _ _ Q n M M M M M M C _ [ t r y 2.<.| M M M M M _ ' } } } n M c & - ",
"o O @ C C B C C r r a >.>.[ ( _ _ _ Q M M M M M M M C ) ' r r y 2.<.| M M M M M _ _ [ } } b M c & - ",
"o o # C C B C A w r p >.>.[ ( _ _ _ ~ n M M M M M M A ( ' w r y 2.<.} M M M M n _ _ ' } } b M c & - ",
"O @ $ B C N C C q w p *.*.} ^ ^ ^ ^ T b b b b b b b A ( ( t r w 3.-.' M M M M n ^ ^ ( ~ ( n M b & * ",
"# * & r 0 0 w r w w 8 i t 6 r y y y i 0 w w w w w w w t 8 0 r 0 i w 8 w w w w w y y i y r 8 8 w O # ",
"# & % 0 0 8 0 0 w w w w w 8 w w w w w w r r r r r r r r 0 0 r r w w r 0 0 0 0 w w w w w w 0 0 8 @ @ ",
"# & & 0 0 0 w w w w e w w 0 w w w w w w r r r r r r r w w w r r w w r w w w w w w w w w w w 0 0 @ @ ",
"# & # 8 0 0 w w w w r r r w w w w w w w w w w w w w w w r r r r r w r w w w w w w w w w w r w 0 @ @ ",
"@ $ # 8 8 8 0 8 8 8 0 0 0 8 8 8 w r w 7 7 7 0 0 0 0 0 0 0 0 0 0 0 0 0 0 0 0 0 0 w w y 8 0 8 7 4 O O ",
"O O $ o.O.X. . . . ....... . . .y r c r.a.d.i.w.@.O.O.X...........O...X.X.X.X.O.r 0  .y.u.t.t.i.$ $ ",
"o O @ 2.2.2.2.2.2.2.2.2.2.2.2.2.r w b n.n.n.V.n.5.2.2.<.<.<.<.<.<.2.<.<.<.<.<.5.r r =.n.c.c.c.c.% * ",
"o O # 2.2.2.2.2.2.2.2.2.2.2.2.3.t 0 b n.n.n.N.j.7.3.3.2.<.<.<.<.<.2.<.2.2.2.2.5.t r =.z.c.c.c.l.& * ",
"o O o 3.3.2.2.2.2.2.2.2.2.<.2.3.t 0 b n.n.n.N.j.9.3.3.3.3.2.<.<.<.2.2.<.<.<.3.3.r r =.c.z.l.l.k.& * ",
"o O O #.#.%.=.-.-.&.O.$.&.O.+.+.t 0 b n.n.g.f.p.=.%.%.*.=.<.<.<.<.2.2.+.+.+.@.@.w r =.c.z.s.d.a.* * ",
"o O $ D D C B B B S Y } } P L L w 0 x V.n.E G G G J J F P ' ' ' ' } T T T P D C r r =.c.c.A M M % * ",
"o O # D C B B B B B D ( _ C n n q 0 x V.n.I A A A F F D L ' ' ' ' } T A D B M B r r =.c.c.x n b % * ",
"o O @ A C C C C C C D ( _ C n n q 0 c V.n.I A A A F F F J _ ' ' ' } T A D B M B r r =.x.z.c M M % * ",
"o O @ A C C C C V V D _ _ C n n q 0 c N.n.Y F D D F G J L _ ' ' ' [ R D D M B M r r &.l.l.b M n & = ",
"o O # A C C C C C M G _ _ C n n w 0 b m.m.T G F F F D C D ' ' [ ` _ T F F M C M r w ;.b.n.M M b & - ",
"o O # A C C C C ^ _ _ _ _ C M M r 8 f 8.7.I F F F F H _ ( ' ' [ G K J F D A C D r r ( 7.5.c M b & - ",
"o O # A C C C C ( ' ' _ _ C B B t 8 f <.<.I F F F F J ' _ ' ' } D J J F F F F G r r E 2.2.b M b & - ",
"o O # A C C C C ( _ _ _ _ C C C 0 0 g 2.<.P A F F F J ' ' ' ' ' F J J F F F J J r r E 2.2.b M b & - ",
"o O # A C C C C ( _ _ _ _ A C C 0 0 g 2.2.P A F F F J ' ' ' ' ' F J J F G G J J r r E 2.2.b M b & - ",
"o O # A C A D D _ _ ' ' ^ A C C 0 w h 3.3.I A G J J L ' ' _ ( } F J J F D D F D r r W 2.2.b M b & - ",
"o O # A C J Q Q _ _ E P P A B B w w h 3.3.I A G Q ^ ~ ' ' P P I F J J F D A A A r r Q 2.2.v M b & - ",
"o O # A C I _ _ _ _ [ B B C B n r r h 2.3.P A L ^ ' ' ' ' F F F F F F F D C C B r r Q 2.2.n M n * * ",
"o O # A C R _ _ _ _ [ B B B M n r r h 2.3.P A L ^ ' ' ' ' F F F F F F F D B M M r r Q 2.2.b M n * * ",
"o O $ A C E _ _ _ _ [ B B B B M w r h 2.3.P A L ^ ' ' ' ' F F F F F F F D M n M r r Q 2.2.b M n * * ",
"o O % A A E _ _ ' ~ Q B B B B B r r h 2.3.L S L ^ ' _ _ ( F F F F F J L J M c G w r Q 2.2.b M n * * ",
"o O O G G Q _ _ ! Q Q B B B B B r r h 2.3.I S P ^ ' ( ^ ^ F F F F F F P L J D P w r Q 2.2.b M n * * ",
"o O X _ ) ^ _ _ A A Z C C C C C y r h 2.3.( ' _ _ ' T D F F F F F F P ] _ _ ' | w r Q 2.2.b M n * * ",
"o O O _ ( ( _ ' A A Z C C C C C y r g 2.3._ ' _ _ ' T F F F F F F F I ] _ _ ' | w r Q 2.2.v M n & * ",
"o O O _ ( ( _ ' A A Z C C C C C 0 t g 2.3._ ' ' ' ' Q G F F F F F F I ' ' ' ' | w r Q 2.2.n M b & - ",
"o O # _ ( ( ( ' B C Z C C C C B 0 t f 2.5.} } } } } Q D F F F F F F T ' ' ' '  .w r Y 2.2.b B n & - ",
"o O $ _ _ ( ^ ^ n M M n n n n V 0 r j <.2.( ( ( ( ( Y A B B B B B B L ( ( ( ( _ 0 w P ;.>.l c b & - ",
"o O $ w q 0 0 9 w w 0 0 0 0 0 w w r 0 t y 0 0 0 0 0 8 0 w w w w w w r r r r r t 0 w r w 0 w w r & - ",
"o O @ w w w 0 0 w w w w w w w w w w w w w w w w w w w w 0 0 0 w w w r w w w w w w w r r w 0 w w & - ",
"o O @ w w w w w w w w w w w w w w w w w w w w w w w w w 0 0 0 w w w r w w w w w w w r r r w w w & - ",
"o O @ w w w w w 0 w w w w w 0 0 0 0 0 0 0 0 0 0 0 0 0 0 0 w 0 r w w r w w 0 w w w w r r r w w 0 & - ",
"o O o 6 7 7 7 7 0 w w 5 5 8 8 8 8 8 8 8 8 8 8 8 8 8 8 7 0 0 0 u 5 6 7 6 7 w 0 7 7 7 8 8 8 7 7 6 & * ",
"o O % ( ( _ ( ' w w w u.u. . . ...| | | | | |  .| | |  . .y 0 8 e.w.t.w.w.[ [ } } |  ..... .} [ & * ",
"o O # >.;.;.;.<.w w y Z.Z.2.2.3.2.2.2.2.2.2.2.<.2.2.2.2.6.p w r V.n.n.n.N.>.2.2.2.<.<.<.<.1.2.2.& * ",
"o O @ ;.;.;.;.>.w w y V.V.<.2.2.2.<.<.<.<.<.<.<.<.<.<.<.5.i w r M.c.b.c.b.-.<.<.<.<.<.<.<.<.<.>.& * ",
"o O @ ;.;.;.;.>.w w y V.V.<.<.2.2.<.<.<.<.<.<.<.<.<.<.<.5.i w r B.b.n.b.c.=.<.<.<.<.<.<.<.<.<.;.& * ",
"o O O >.-.-.-.,.9 w y V.V.-.;.<.<.<.<.<.<.;.>.<.<.>.>.;.<.i w r V.n.n.z.z.=.>.>.>.>.;.;.;.>.>.;.& * ",
"o O O } _ _ _ [ r w y V.V.' } ' ' ' ' ' ' X.@.@.@.+...[ ( y w r V.b.h.0.w.^ ' ' ' ' ' ' ' ' ' | & * ",
"o O @ n M n M M r r y V.V.M x n n M M M M ( _ _ _ ' ^ n b w w r N.n.6.n n n M M M M M M M M n j * - ",
"o O O C C B M M w r y V.V.B n M M M M M M ( _ _ _ _ ^ n b w w r c.n.6.M M M M M M M M M M M M c & - ",
"o O O C C B M M w r y V.V.B n M M M M M M ( _ _ _ _ ^ n n w w r c.n.6.M M M M M M M M M M M M c & - ",
"o O O C C B M M w r t V.V.B n M M M M M M ( _ _ _ _ ^ n n w w w c.b.7.M M M M M M M M M M n M x & - ",
"o O O C C B B B r t d k.c.n n M M M m M M ^ _ _ ( _ Q M n w w 8 v.b.6.M M M M M M M M M M A A C * - ",
"o O O C C B B B r t d <.3.c n M M M D _ ' ^ _ _ A M M M n w w 0 2.<...M M M M M M M M M n ( ^ [ * - ",
"o O O C C B B B r t a ;.<.c b M M M C ) _ ( _ _ B M M M n w r w 2.<.| M M M M M M M M M M _ _ _ & - ",
"o O O C C B B B r t p >.<.b n M M M C _ _ _ _ _ B M M M n w r w 2.<.| M M M M M M M M M M _ ' _ & * ",
"o O O C C B B B r t i <.<.n M M M M C _ _ _ _ _ B M M M n w r w 2.<.| M M M M M M M M M M ' ' ( % * ",
"o O O C C B B B r t i <.<.n M M B c C _ _ ' [ [ B M M M n w r w 2.<.| M M M M M M M n n n ' ' ( % * ",
"o O O C C B B B r t i <.<.n M M Q ( ( _ _ B m m M M M M n w r w 2.<.| M M M M M M M P _ ( ' ' ( % * ",
"o O O C C B M M w r i <.<.n M M _ _ _ _ _ B M M M M M M n w r w 2.<.| M M M M M M M I ' ' ' ' ( % * ",
"o O O C C B M M w r i <.<.n M M _ _ _ _ _ B M M M M M M n w r w 2.<.| M M M M M M M I ' ' ' ' ( % * ",
"o O O C C B M M w r i <.<.n M M _ _ _ _ _ C M M M M M M n w r w 2.<.| M M M M M M M I ' ' ' ' ( % * ",
"o O O C C B M M w r i <.<.M x x / _ _ ' { A M M M M M b n w r w 2.<.| M M M M n b n P ' ' [ ' ( % * ",
"o O O C C B M B w r y <.<.T E E ) ( ~ P J B M M M M C L P t r w 2.<.| M M M M B L Y _ _ ' I I P % * ",
"o O O C C C N C r r y <.<.[ _ _ _ _ Y B C B M M M M L ' [ y r w 2.<.| M M M M M ' } [ ' [ b n n % * ",
"o O O C C C B C r r y <.<._ _ _ _ _ T B B M M M M M L ' [ y r w 3.<.| M M M M n _ [ } ' [ M M M % * ",
"o O @ C C C C A t r y <.<._ _ _ _ _ E M M M M M M M A ( _ i r w 3.<.| M M M M n ' } [ ' [ M M M % * ",
"o O $ A A A A D y t i 5.4.} [ [ ' [ ~ B C B B B B B G ( [ p t r 6.5...B B B B B } } } } | B B B % * ",
"o O X p a s a s 2 2 5 P U n c c n c k y t y y y y y s c c 3 2 2 I I x y y y y t b c b b n t y y % * ",
"o O O * * * * = $ % % # # $ % % % % * $ $ $ $ $ $ $ $ $ % + $ & # % @ % % % % # % # % % % $ % % & * ",
"O O O & * * * * * * * * * * * * * * * * * * * * * * * * * * * * * * * * * * * * * * * * * * * * * * ",
"O O O & * * * * * * * * * * * * * * * * * * * * * * * * * * * * * * * * * * * * * * * * * * * * * * ",
"O O O & * * * * * * * * * * * * * * * * * * * * * * * * * * * * * * * * * * * * * * * * * * * * * * ",
". .   @ o o o o o o o o o o o o o o o o o o o o o o o o o o o o o o o o o o o o o o o o o o o o O # "
};
